<svg width="17" height="16" viewBox="0 0 17 16" fill="none" xmlns="http://www.w3.org/2000/svg">
<path d="M16.3633 4.67725C16.2676 5.1507 16.1799 5.62607 16.0749 6.09728C15.8473 7.11685 15.7442 8.15306 15.6104 9.18704C15.3402 11.2755 14.4967 13.0998 12.9307 14.5573C12.2892 15.1543 11.5923 15.6409 10.7309 15.8566C9.68188 16.1191 8.65879 16.01 7.66548 15.6117C7.30183 15.4658 6.95962 15.2676 6.60462 15.0989C6.54187 15.0692 6.46408 15.0487 6.39654 15.056C5.27294 15.1738 4.16182 15.1309 3.08335 14.765C1.41235 14.1981 0.462244 12.9951 0.102754 11.3014C-0.177026 9.98316 0.129644 8.76993 0.823013 7.63704C1.09223 7.19688 1.35953 6.75544 1.62074 6.31048C2.0561 5.56877 2.24304 4.7464 2.40534 3.91314C2.53627 3.24057 2.68096 2.56961 2.84902 1.90569C3.08335 0.979921 4.24569 -0.110391 5.57833 0.00901166C6.38085 0.0810376 6.99644 0.484703 7.50126 1.08652C7.87067 1.527 8.00064 2.06639 8.11908 2.60771C8.2945 3.40735 8.45968 4.20892 8.62966 5.00953C8.63959 5.05595 8.65655 5.10076 8.67416 5.16063C9.19883 4.80658 9.68989 4.42628 10.1201 3.97364C10.5785 3.49123 11.0235 2.99601 11.4822 2.51423C11.9172 2.05711 12.3955 1.6512 12.9605 1.35958C13.9849 0.830748 15.0419 1.09932 15.6917 2.05231C16.0627 2.5965 16.2494 3.20664 16.3313 3.85392C16.339 3.9157 16.3528 3.97684 16.3633 4.0383V4.67725ZM7.95806 14.1933C8.12484 14.1744 8.37581 14.161 8.6207 14.1152C10.3368 13.7941 11.4777 12.7666 12.1807 11.2034C12.5357 10.4137 12.6381 9.56893 12.7191 8.72127C12.8126 7.74012 13.1135 6.84347 13.7288 6.06079C14.0508 5.65104 14.3607 5.23137 14.6754 4.81554C15.144 4.19612 15.3803 3.50787 15.274 2.72615C15.2487 2.53952 15.2336 2.32344 15.1309 2.18067C14.8751 1.82535 14.5073 1.63136 14.0579 1.60479C13.5815 1.57662 13.1929 1.78981 12.8171 2.03886C12.2662 2.40411 11.8055 2.8718 11.3817 3.37086C10.4537 4.4647 9.37873 5.37862 8.15333 6.12417C7.62226 6.44717 7.10656 6.79802 6.60141 7.16071C5.85074 7.69882 5.19931 8.33745 4.74539 9.15406C4.11508 10.2882 4.13493 11.4397 4.81517 12.5185C5.50822 13.6174 6.5678 14.1581 7.95838 14.1933H7.95806ZM5.82802 14.6159C5.8309 14.5951 5.83378 14.5743 5.83666 14.5534C5.80145 14.5218 5.76687 14.4894 5.73102 14.4584C5.17114 13.9731 4.69673 13.417 4.34044 12.7653C3.62402 11.4551 3.58625 10.1426 4.34172 8.83267C4.84046 7.96772 5.53895 7.28651 6.345 6.71543C6.92185 6.30664 7.52014 5.92794 8.11268 5.54188C8.20551 5.48138 8.2212 5.43176 8.19175 5.32421C8.09443 4.97112 8.00992 4.61419 7.92989 4.2563C7.76759 3.5306 7.64019 2.79561 7.44556 2.07888C7.22308 1.26034 6.38149 0.600905 5.60041 0.517995C4.49698 0.401153 3.5075 1.31828 3.32535 2.08976C3.1653 2.7668 3.00844 3.44577 2.88584 4.13018C2.69697 5.18463 2.3538 6.17347 1.76703 7.07524C1.55544 7.40047 1.36113 7.73691 1.1649 8.07175C0.582287 9.06603 0.363328 10.1275 0.614298 11.2623C0.866229 12.402 1.43795 13.3309 2.46745 13.9327C3.08367 14.2929 3.76071 14.475 4.46496 14.5445C4.91729 14.589 5.37345 14.5931 5.82802 14.6152V14.6159ZM15.765 3.62119C15.6533 4.29215 15.3214 4.80466 14.9567 5.29892C14.6882 5.66289 14.4077 6.01789 14.1331 6.37706C13.7131 6.9267 13.4109 7.53044 13.3091 8.22093C13.2438 8.66269 13.1916 9.10669 13.1382 9.55005C12.9736 10.9093 12.4819 12.127 11.5213 13.1174C10.3381 14.337 8.8928 14.8595 7.19587 14.644C7.04477 14.6248 6.89624 14.5845 6.74675 14.5538C6.74034 14.5701 6.73394 14.5867 6.72754 14.6031C7.07518 14.7718 7.41451 14.9603 7.77175 15.1053C8.87679 15.5548 9.99688 15.6431 11.1266 15.1873C11.7722 14.9267 12.2831 14.4789 12.771 13.999C14.136 12.6564 14.8742 10.9986 15.1002 9.12846C15.2477 7.9069 15.4043 6.69206 15.6882 5.49515C15.8316 4.89077 15.9232 4.28351 15.7647 3.62151L15.765 3.62119Z" fill="black"/>
<path d="M6.11841 9.70752C6.1453 7.90015 7.70234 6.66451 9.09548 6.55503C9.49722 6.52334 9.89385 6.5259 10.2815 6.64274C11.003 6.8601 11.3232 7.41646 11.0978 8.13672C10.9931 8.47124 10.8318 8.80096 10.6352 9.09194C9.98284 10.0587 9.12557 10.7879 8.02533 11.2089C7.74811 11.3148 7.45745 11.3638 7.16326 11.3126C6.66933 11.2268 6.37578 10.908 6.24485 10.4431C6.17763 10.205 6.15906 9.95305 6.11873 9.70752H6.11841ZM9.46489 7.01984C8.27599 7.04897 7.19528 7.78587 6.80185 8.87074C6.62707 9.35284 6.59314 9.84869 6.74904 10.3433C6.85755 10.6871 7.07587 10.835 7.43568 10.8081C7.59766 10.7959 7.7638 10.7594 7.91489 10.6996C8.72511 10.3791 9.38871 9.85734 9.93546 9.18478C10.2354 8.81568 10.5059 8.42738 10.6244 7.95585C10.7265 7.54835 10.585 7.27145 10.1836 7.15172C9.95147 7.08258 9.70498 7.06209 9.46521 7.01984H9.46489Z" fill="black"/>
<path d="M5.06387 0.828168C5.07443 0.830088 5.08756 0.828808 5.09492 0.83457C5.26714 0.97254 5.45025 0.91748 5.64008 0.880987C5.78701 0.852817 5.89553 0.94629 5.91826 1.07946C5.94291 1.22383 5.86736 1.33843 5.72235 1.38069C5.67241 1.39541 5.61671 1.40373 5.57509 1.43191C5.36798 1.57084 5.34077 1.57404 5.13589 1.44279C5.05106 1.38837 4.96399 1.33651 4.88492 1.27409C4.79081 1.19982 4.75752 1.08714 4.8161 0.989506C4.86412 0.909477 4.96047 0.858579 5.03538 0.794556C5.04498 0.80576 5.05459 0.816964 5.06419 0.828168H5.06387Z" fill="black"/>
</svg>
