<svg width="18" height="16" viewBox="0 0 18 16" fill="none" xmlns="http://www.w3.org/2000/svg">
<g clip-path="url(#clip0_1649_1050)">
<path d="M6.17591 16C6.04664 15.9778 5.91389 15.9667 5.78843 15.9307C5.64043 15.8884 5.48551 15.8457 5.35588 15.7667C4.85506 15.4624 4.85783 14.8247 5.359 14.5214C5.6841 14.3249 6.02445 14.1537 6.34921 13.9561C7.98304 12.9611 9.31672 11.6582 10.3024 10.0175C10.5527 9.60122 10.7083 9.12882 10.92 8.68865C11.0694 8.37845 11.2413 8.07899 11.4008 7.7733C11.4264 7.72409 11.4562 7.66828 11.4566 7.6156C11.459 6.80458 11.3866 6.00396 11.0902 5.23903C10.9322 4.8311 10.7232 4.45435 10.3652 4.1854C10.2563 4.1036 10.1309 4.03844 10.005 3.98576C9.81026 3.90431 9.62657 3.93689 9.45154 4.06305C8.85679 4.49213 8.32408 4.50669 7.71131 4.09286C7.41082 3.88976 7.1332 3.90743 6.84553 4.09875C6.38421 4.40479 6.13016 4.85813 5.96969 5.36762C5.63835 6.42021 5.63419 7.49083 5.84908 8.56318C6.10382 9.83655 6.5842 11.0309 7.16786 12.1861C7.20425 12.2582 7.24549 12.3285 7.27287 12.4037C7.33006 12.559 7.28223 12.7004 7.15399 12.7597C7.01189 12.8256 6.89543 12.7777 6.80463 12.6602C6.76616 12.6103 6.7308 12.5559 6.70481 12.4987C6.14957 11.2711 5.58844 10.0473 5.32503 8.71187C5.08519 7.49742 5.07445 6.29648 5.48551 5.11426C5.68029 4.55452 5.98113 4.06548 6.4719 3.7078C6.81156 3.45998 7.1838 3.36744 7.59693 3.42221C7.63021 3.42671 7.66417 3.42671 7.72899 3.43087C7.76468 3.20247 7.80108 2.97753 7.83539 2.75225C7.96397 1.90414 8.22322 1.1153 8.8658 0.503222C9.10564 0.274819 9.36489 0.0762225 9.70386 0.0134896C9.98771 -0.0388455 10.2029 0.070677 10.3579 0.29908C10.5173 0.533722 10.5381 0.790199 10.3769 1.029C10.2785 1.17491 10.1503 1.30662 10.0161 1.42169C9.38707 1.96133 9.2467 2.64758 9.38915 3.41874C9.56522 3.41874 9.73678 3.40557 9.90557 3.42117C10.3305 3.46102 10.6598 3.68735 10.944 3.98784C11.4573 4.5306 11.7127 5.19848 11.8458 5.91662C11.9144 6.28712 11.9421 6.66525 11.991 7.06037C12.3709 6.74774 12.7941 6.5533 13.2987 6.57791C13.7863 6.60183 14.2109 6.79592 14.6289 7.05517C14.8573 6.64792 14.8843 6.22855 14.7786 5.79704C14.6608 5.31632 14.7786 5.06123 15.1949 4.93542C15.6389 4.80094 16.0666 5.00162 16.2045 5.41753C16.3279 5.78976 16.287 6.17136 16.2357 6.54845C16.1861 6.91306 16.1134 7.27456 16.0492 7.6461C16.1539 7.72513 16.2745 7.80346 16.3806 7.89807C17.1244 8.56526 17.3191 9.56413 16.8921 10.501C16.6357 11.0638 16.2662 11.5491 15.8441 11.9941C14.5024 13.4089 12.9573 14.5318 11.1353 15.2538C10.4431 15.5279 9.72951 15.687 8.98018 15.6877C8.78227 15.6877 8.58506 15.7556 8.38681 15.7882C7.95011 15.8603 7.51306 15.9296 7.07635 16H6.17661H6.17591ZM10.8975 14.7807C10.9062 14.7775 10.9429 14.7658 10.9783 14.7505C12.8932 13.9211 14.5398 12.7295 15.8766 11.1207C16.2014 10.7297 16.4561 10.3079 16.5442 9.79531C16.696 8.91393 16.26 8.2412 15.3907 8.03879C15.2954 8.01661 15.1994 7.98888 15.1023 7.98368C14.8424 7.97017 14.6591 7.83846 14.4788 7.65893C13.8695 7.0517 12.8956 6.76611 12.1043 7.72963C11.8694 8.01591 11.6787 8.34552 11.5096 8.67686C11.3141 9.06054 11.19 9.48061 10.9918 9.8622C10.0186 11.7359 8.5712 13.1697 6.80809 14.3006C6.44001 14.5367 6.0501 14.7384 5.67128 14.9578C5.45916 15.0805 5.45327 15.2108 5.67544 15.311C5.83452 15.3827 6.0151 15.434 6.18874 15.442C7.29609 15.4933 8.37642 15.3477 9.40024 14.9086C10.9634 14.2386 12.2773 13.222 13.3992 11.9532C14.0615 11.2042 14.5998 10.3783 14.911 9.41857C14.9537 9.28721 14.9921 9.15446 15.04 9.02484C15.0854 8.90111 15.1665 8.81273 15.3127 8.83837C15.4514 8.86298 15.519 8.96315 15.5252 9.09554C15.5293 9.18011 15.5235 9.27161 15.495 9.34994C15.3675 9.70104 15.2562 10.0611 15.0916 10.3946C14.4313 11.73 13.4657 12.8228 12.3182 13.7558C11.8596 14.1287 11.3588 14.4493 10.8972 14.7796L10.8975 14.7807ZM8.91883 3.81871C8.8963 3.7026 8.87724 3.60174 8.85714 3.50088C8.65126 2.46631 8.94032 1.60365 9.75099 0.92121C9.79952 0.880312 9.85948 0.844267 9.8879 0.791585C9.91562 0.739943 9.93677 0.653296 9.91146 0.613438C9.88651 0.57462 9.78253 0.543426 9.74233 0.564222C9.57596 0.651563 9.38673 0.730585 9.26854 0.866795C9.05608 1.11183 8.8658 1.38287 8.7081 1.66638C8.46168 2.11071 8.40692 2.61534 8.31923 3.10785C8.27833 3.33764 8.22218 3.56465 8.16777 3.81836H8.91848L8.91883 3.81871ZM15.494 7.51371C15.6323 6.92866 15.7564 6.36753 15.7259 5.78595C15.7214 5.69723 15.7002 5.59949 15.6552 5.52497C15.5872 5.41337 15.4749 5.39673 15.3512 5.44733C15.2295 5.49724 15.2795 5.5832 15.2975 5.66465C15.3152 5.74332 15.3349 5.82165 15.3474 5.90102C15.4323 6.43373 15.3016 6.92901 15.0673 7.4274C15.2081 7.45583 15.3408 7.48286 15.4936 7.51371H15.494Z" fill="black"/>
<path d="M3.55959 8.34206C3.396 8.41173 3.24107 8.4703 3.09273 8.54239C2.64182 8.76213 2.19472 8.75901 1.74658 8.53546C1.66963 8.49699 1.58922 8.46372 1.50812 8.43426C1.14975 8.30463 0.906787 8.40133 0.74389 8.74965C0.561583 9.14026 0.527964 9.55998 0.543214 9.98282C0.592776 11.3751 1.13138 12.5715 2.01553 13.6276C2.33994 14.0147 2.70213 14.3585 3.14472 14.6081C3.46497 14.7886 3.80255 14.9134 4.17895 14.8975C4.3214 14.8916 4.43022 14.9346 4.45379 15.0947C4.47494 15.2385 4.39626 15.3917 4.24272 15.4014C4.01778 15.4156 3.78071 15.4097 3.5641 15.3536C2.83556 15.164 2.27097 14.7089 1.77465 14.1665C0.852719 13.159 0.261089 11.9861 0.0676917 10.6278C-0.01549 10.0442 -0.0484161 9.45566 0.121413 8.87928C0.171322 8.71014 0.245146 8.54274 0.337339 8.39267C0.575793 8.00552 0.919264 7.80346 1.38924 7.82599C1.78851 7.84505 1.78921 7.835 1.85194 7.45133C1.96077 6.78518 2.28102 6.24034 2.8068 5.82166C2.92013 5.73155 3.06431 5.66223 3.20503 5.62722C3.48299 5.55825 3.76165 5.69099 3.90341 5.92702C4.05071 6.17241 4.03061 6.46978 3.83513 6.69853C3.65975 6.90441 3.45665 7.08914 3.396 7.36918C3.3804 7.44232 3.34713 7.51441 3.34713 7.58684C3.34713 7.64854 3.37104 7.75147 3.4064 7.76222C3.46497 7.77989 3.55994 7.75771 3.60569 7.71543C3.675 7.65166 3.72249 7.5605 3.7665 7.4742C3.85281 7.30541 3.92351 7.1283 4.01328 6.96125C4.08398 6.83024 4.18934 6.74255 4.35328 6.81325C4.50613 6.87945 4.55673 7.00353 4.48256 7.18861C4.27287 7.71266 4.13944 8.24814 4.16058 8.81897C4.19558 9.77106 4.51583 10.6306 4.99031 11.4416C5.32408 12.0118 5.72786 12.5275 6.2117 12.9794C6.2578 13.0228 6.30251 13.0685 6.34132 13.1181C6.42589 13.2259 6.44357 13.3416 6.34132 13.4456C6.24359 13.5447 6.12471 13.5763 5.99612 13.4997C5.95696 13.4765 5.92091 13.446 5.88764 13.4144C4.72656 12.3178 3.96406 10.9966 3.66773 9.42204C3.60291 9.07822 3.59529 8.72401 3.5582 8.34172L3.55959 8.34206ZM2.28934 8.1601C2.45605 8.14451 2.59156 8.12891 2.72777 8.11955C2.84215 8.11158 2.87195 8.06306 2.84423 7.95042C2.71391 7.41493 2.85566 6.9512 3.22756 6.55158C3.28232 6.49266 3.34436 6.4372 3.38525 6.36962C3.41229 6.32456 3.40778 6.26044 3.41714 6.20499C3.35857 6.2036 3.28474 6.17865 3.24419 6.20499C3.11491 6.28817 2.9794 6.37447 2.87923 6.48815C2.46922 6.95432 2.324 7.51891 2.28934 8.1601Z" fill="black"/>
<path d="M13.6774 8.37989C13.6424 8.45995 13.6247 8.50812 13.6011 8.55318C13.4323 8.87898 13.2549 9.20061 13.0944 9.53057C12.8009 10.135 12.5527 10.7648 12.2214 11.3474C11.7285 12.2132 11.0416 12.9195 10.2319 13.5025C10.1481 13.5628 10.0604 13.6207 9.96748 13.6647C9.8285 13.7309 9.67981 13.6838 9.60495 13.5604C9.52246 13.4245 9.57549 13.3136 9.68501 13.228C9.86628 13.0866 10.0607 12.9611 10.2392 12.8162C11.2273 12.0125 11.9136 10.9897 12.4002 9.82343C12.5617 9.43595 12.7152 9.04465 12.8934 8.66513C12.9721 8.49773 13.0885 8.34003 13.2188 8.20867C13.2722 8.15495 13.4188 8.15148 13.502 8.18198C13.5769 8.20936 13.623 8.31507 13.6774 8.38058V8.37989Z" fill="black"/>
</g>
<defs>
<clipPath id="clip0_1649_1050">
<path d="M0 0H9.11395C13.5322 0 17.1139 3.58172 17.1139 8C17.1139 12.4183 13.5322 16 9.11394 16H0V0Z" fill="white"/>
</clipPath>
</defs>
</svg>
