<svg width="43" height="43" viewBox="0 0 43 43" fill="none" xmlns="http://www.w3.org/2000/svg">
<path d="M28.5935 35.9157H7.16698V7.17382H19.671V16.0963H28.5935V17.9166H32.2682V14.3584L28.5953 10.6819L25.0837 7.17382L21.5182 3.6084H7.1849C6.23721 3.61172 5.32955 3.99088 4.66111 4.66269C3.99266 5.33449 3.61805 6.24404 3.61948 7.19173L3.60157 35.8584C3.60014 36.8061 3.97475 37.7156 4.64319 38.3874C5.31163 39.0592 6.21929 39.4384 7.16698 39.4417H32.2682V35.8584L28.5935 35.9157ZM38.0911 32.2751L41.2266 21.5251H38.5391L36.7474 27.6705L34.9557 21.5251H32.2682L35.4036 32.2751H38.0911Z" fill="#0C743F"/>
<path d="M17.9362 21.5249H12.5612C12.0865 21.5263 11.6316 21.7155 11.2959 22.0512C10.9602 22.3869 10.7709 22.8418 10.7695 23.3166V30.4832C10.7709 30.958 10.9602 31.4129 11.2959 31.7486C11.6316 32.0843 12.0865 32.2735 12.5612 32.2749H17.9362C18.4109 32.2735 18.8658 32.0843 19.2015 31.7486C19.5372 31.4129 19.7264 30.958 19.7279 30.4832V28.6916H17.0404V29.5874H13.457V24.2124H17.0404V25.1082H19.7279V23.3166C19.7264 22.8418 19.5372 22.3869 19.2015 22.0512C18.8658 21.7155 18.4109 21.5263 17.9362 21.5249ZM30.4779 24.2232V21.5249H23.3112C22.836 21.5249 22.3803 21.7137 22.0443 22.0497C21.7083 22.3857 21.5195 22.8414 21.5195 23.3166V26.4645C21.5195 26.9397 21.7083 27.3954 22.0443 27.7314C22.3803 28.0674 22.836 28.2562 23.3112 28.2562H27.8083V29.5874H21.5195V32.2874H28.6862C29.1614 32.2874 29.6171 32.0987 29.9531 31.7627C30.2891 31.4267 30.4779 30.971 30.4779 30.4958V27.3478C30.4779 26.8726 30.2891 26.4169 29.9531 26.0809C29.6171 25.7449 29.1614 25.5562 28.6862 25.5562H24.1891V24.2249L30.4779 24.2232Z" fill="#0C743F"/>
</svg>
