<svg width="22" height="11" viewBox="0 0 22 11" fill="green" xmlns="http://www.w3.org/2000/svg">
<path d="M10.7023 0C4.88801 0 0.414309 4.8195 0.414309 4.8195L0 5.25L0.414309 5.6805C0.414309 5.6805 4.49323 10.0564 9.91761 10.4593C10.1764 10.4895 10.4351 10.5 10.7023 10.5C10.9694 10.5 11.2282 10.4895 11.487 10.4587C16.9113 10.0564 20.9903 5.68116 20.9903 5.68116L21.4046 5.25L20.9903 4.8195C20.9903 4.8195 16.5166 0 10.7023 0ZM10.7023 1.3125C12.2389 1.3125 13.6555 1.70756 14.8872 2.23519C15.3315 2.92753 15.5847 3.72488 15.5847 4.59375C15.5877 5.72498 15.1466 6.81741 14.346 7.66144C13.5455 8.50547 12.4419 9.04166 11.247 9.16716C11.2331 9.16978 11.217 9.16453 11.2038 9.16716C11.0371 9.17438 10.8711 9.1875 10.7023 9.1875C10.5168 9.1875 10.3375 9.177 10.1575 9.16716C8.96264 9.04166 7.85907 8.50547 7.05854 7.66144C6.25801 6.81741 5.8169 5.72498 5.81986 4.59375C5.81986 3.73734 6.06537 2.94 6.49572 2.25553H6.4741C7.71494 1.71741 9.14898 1.3125 10.7023 1.3125ZM10.7023 2.625C10.1471 2.62517 9.61481 2.83283 9.2224 3.20229C8.82998 3.57175 8.60963 4.07274 8.60982 4.59506C8.61 5.11738 8.83071 5.61824 9.22338 5.98745C9.61606 6.35666 10.1485 6.56399 10.7037 6.56381C10.9786 6.56373 11.2507 6.5127 11.5046 6.41365C11.7586 6.3146 11.9893 6.16946 12.1836 5.98652C12.3779 5.80359 12.532 5.58643 12.6371 5.34746C12.7422 5.10849 12.7962 4.85238 12.7962 4.59375C12.7961 4.33512 12.7418 4.07905 12.6366 3.84014C12.5313 3.60124 12.377 3.38418 12.1826 3.20136C11.9882 3.01855 11.7574 2.87355 11.5034 2.77466C11.2494 2.67577 10.9772 2.62491 10.7023 2.625ZM4.59925 3.24056C4.48585 3.68379 4.42734 4.13787 4.42488 4.59375C4.42488 5.74481 4.77362 6.82172 5.38393 7.73128C4.14574 7.04882 3.00956 6.21441 2.00528 5.25C2.79587 4.49957 3.66492 3.82678 4.59925 3.24056ZM16.8053 3.24056C17.7396 3.82658 18.6087 4.4998 19.3993 5.25C18.395 6.21441 17.2588 7.04882 16.0206 7.73128C16.6498 6.79204 16.9824 5.70396 16.9797 4.59375C16.9797 4.12453 16.9141 3.67697 16.8053 3.24056Z" fill="white"/>
</svg>
