<svg width="14" height="28" viewBox="0 0 14 28" fill="none" xmlns="http://www.w3.org/2000/svg">
<path d="M6.93285 4.62326C8.2603 4.62326 9.33641 3.58831 9.33641 2.31163C9.33641 1.03495 8.2603 0 6.93285 0C5.60541 0 4.5293 1.03495 4.5293 2.31163C4.5293 3.58831 5.60541 4.62326 6.93285 4.62326Z" fill="#FF69F6"/>
<path d="M12.7826 17.5125L9.3395 8.41339L9.31969 8.31981C9.31969 8.18699 9.43564 8.0794 9.58015 8.0794C9.70309 8.0794 9.80623 8.15842 9.83361 8.26377L12.1742 14.1502C12.3298 14.487 12.9696 14.7106 13.3903 14.7106C13.9526 14.7106 14.0109 13.6486 13.9986 13.5898L11.658 7.78575C11.4546 6.48507 10.0888 5.18384 8.53016 5.18384H5.47982C3.92115 5.18384 2.45396 6.48507 2.25061 7.78575L0.0148635 13.5898C-0.0358297 13.7013 0.0148631 14.7106 0.622599 14.7106C1.09515 14.7106 1.72387 14.552 1.83865 14.1502L4.09654 8.23855C4.11581 8.19122 4.1496 8.15064 4.19341 8.12222C4.23723 8.09379 4.289 8.07886 4.34185 8.0794C4.48577 8.0794 4.60172 8.187 4.60172 8.31925L4.58541 8.40499L1.23092 17.5125C1.22451 17.5394 1.23092 18.0455 1.23092 18.0729C1.23092 18.2668 1.71746 18.6333 1.92897 18.6333H4.09304V25.9717C4.09304 26.5545 4.62678 27.0392 5.25841 27.0392C5.89003 27.0392 6.42377 26.5539 6.42377 25.9717V18.6283C6.42377 18.4697 7.58913 18.4747 7.58913 18.6333V25.9185C7.58913 26.5013 8.12345 27.0392 8.75449 27.0392C9.38728 27.0392 9.91985 26.5007 9.91985 25.9185V18.6333H12.1742C12.3852 18.6333 12.7826 18.2668 12.7826 18.0729C12.7826 18.0281 12.7995 17.5512 12.7826 17.5125Z" fill="#FF69F6"/>
</svg>
