<svg width="615" height="468" viewBox="0 0 615 468" fill="none" xmlns="http://www.w3.org/2000/svg">
<g opacity="0.8">
<path d="M614.171 412.292H0.828979V412.599H614.171V412.292Z" fill="#E0E0E0"/>
<path d="M466.147 423.603H423.949V423.909H466.147V423.603Z" fill="#E0E0E0"/>
<path d="M515.791 422.732H492.042V423.039H515.791V422.732Z" fill="#E0E0E0"/>
<path d="M304.237 423.456H272.736V423.762H304.237V423.456Z" fill="#E0E0E0"/>
<path d="M326.992 427.81H305.476V428.117H326.992V427.81Z" fill="#E0E0E0"/>
<path d="M178.293 420.352H113.291V420.659H178.293V420.352Z" fill="#E0E0E0"/>
<path d="M291.553 357.582H54.6927C52.8371 357.579 51.0587 356.84 49.7478 355.527C48.4368 354.213 47.7006 352.434 47.7006 350.578V17.6193C47.7167 15.7744 48.4601 14.0104 49.7693 12.7104C51.0785 11.4104 52.8477 10.6794 54.6927 10.6763H291.553C293.411 10.6763 295.192 11.4142 296.506 12.7278C297.819 14.0414 298.557 15.823 298.557 17.6806V350.578C298.557 352.436 297.819 354.217 296.506 355.531C295.192 356.844 293.411 357.582 291.553 357.582ZM54.6927 10.9216C52.9184 10.9249 51.218 11.6319 49.9646 12.8876C48.7112 14.1434 48.0072 15.8451 48.0072 17.6193V350.578C48.0072 352.352 48.7112 354.054 49.9646 355.31C51.218 356.565 52.9184 357.272 54.6927 357.276H291.553C293.328 357.272 295.03 356.566 296.285 355.31C297.541 354.055 298.247 352.353 298.251 350.578V17.6193C298.247 15.844 297.541 14.1423 296.285 12.8869C295.03 11.6315 293.328 10.9248 291.553 10.9216H54.6927Z" fill="#E0E0E0"/>
<path d="M556.897 357.582H320.024C318.168 357.579 316.388 356.84 315.075 355.527C313.762 354.214 313.023 352.435 313.02 350.578V17.6193C313.039 15.7733 313.786 14.0093 315.097 12.7096C316.408 11.41 318.178 10.6794 320.024 10.6763H556.897C558.74 10.6827 560.506 11.415 561.812 12.7147C563.119 14.0143 563.861 15.7765 563.877 17.6193V350.578C563.877 352.431 563.142 354.209 561.834 355.522C560.526 356.835 558.75 357.576 556.897 357.582ZM320.024 10.9216C318.249 10.9248 316.547 11.6315 315.292 12.8869C314.037 14.1423 313.33 15.844 313.327 17.6193V350.578C313.33 352.353 314.037 354.055 315.292 355.31C316.547 356.566 318.249 357.272 320.024 357.276H556.897C558.672 357.272 560.374 356.566 561.629 355.31C562.885 354.055 563.591 352.353 563.595 350.578V17.6193C563.591 15.844 562.885 14.1423 561.629 12.8869C560.374 11.6315 558.672 10.9248 556.897 10.9216H320.024Z" fill="#E0E0E0"/>
<path d="M533.247 40.4478H348.385V199.377H533.247V40.4478Z" fill="#E0E0E0"/>
<path d="M537.356 40.4478H352.495V199.377H537.356V40.4478Z" fill="#F0F0F0"/>
<path d="M529.983 191.919V47.9062L359.867 47.9063V191.919H529.983Z" fill="#FAFAFA"/>
<path d="M475.617 191.919V47.9062H464.503V191.919H475.617Z" fill="#E0E0E0"/>
<path d="M417.153 191.919V47.9062H406.039V191.919H417.153Z" fill="#E0E0E0"/>
<path d="M479.53 196.641V42.3491H468.416V196.641H479.53Z" fill="#F0F0F0"/>
<path d="M421.054 196.654V42.3618H409.94V196.654H421.054Z" fill="#F0F0F0"/>
<path d="M529.983 191.906V47.8936H526.88V191.906H529.983Z" fill="#E0E0E0"/>
<path d="M218.369 165.962C218.369 165.962 195.872 127.211 227.091 96.311C227.091 96.311 235.236 101.623 235.113 108.762C234.991 115.901 226.379 117.704 228.232 123.666C230.084 129.628 238.192 135.455 232.869 140.386C227.545 145.317 233.727 149.684 233.371 155.719C233.016 161.755 218.369 165.962 218.369 165.962Z" fill="#E0E0E0"/>
<path d="M221.902 172.304C221.902 172.304 231.028 128.414 191.676 108.958C191.676 108.958 185.617 116.564 187.996 123.298C190.376 130.033 199.098 129.027 199.22 135.271C199.343 141.515 193.492 149.611 200.091 152.604C206.691 155.597 202.214 161.706 204.458 167.324C206.703 172.942 221.902 172.304 221.902 172.304Z" fill="#E6E6E6"/>
<path d="M201.87 161.153C201.87 161.153 202.263 199.046 217.412 199.046C232.562 199.046 232.942 161.153 232.942 161.153H201.87Z" fill="#F0F0F0"/>
<path d="M110.85 184.792C110.85 184.792 111.697 199.046 144.044 199.046C176.392 199.046 177.251 184.792 177.251 184.792H110.85Z" fill="#E6E6E6"/>
<path d="M451.88 270.733H434.805C432.678 270.733 430.953 272.458 430.953 274.585V302.823C430.953 304.951 432.678 306.675 434.805 306.675H451.88C454.008 306.675 455.732 304.951 455.732 302.823V274.585C455.732 272.458 454.008 270.733 451.88 270.733Z" fill="#F0F0F0"/>
<path d="M497.17 282.485H485.676C484.246 282.485 483.087 283.644 483.087 285.073V304.087C483.087 305.516 484.246 306.675 485.676 306.675H497.17C498.599 306.675 499.758 305.516 499.758 304.087V285.073C499.758 283.644 498.599 282.485 497.17 282.485Z" fill="#E6E6E6"/>
<path d="M498.887 280.142H483.958C483.477 280.142 483.087 280.532 483.087 281.013V281.994C483.087 282.475 483.477 282.865 483.958 282.865H498.887C499.368 282.865 499.758 282.475 499.758 281.994V281.013C499.758 280.532 499.368 280.142 498.887 280.142Z" fill="#F0F0F0"/>
<path d="M391.43 286.68C391.43 286.68 392.043 306.675 415.46 306.675C438.878 306.675 439.503 286.68 439.503 286.68H391.43Z" fill="#E6E6E6"/>
<path d="M333.187 260.27H368.626V253.278H333.187V260.27Z" fill="#E0E0E0"/>
<path d="M544.814 253.29H368.626V260.282H544.814V253.29Z" fill="#F0F0F0"/>
<path d="M333.187 313.667H368.626V306.675H333.187V313.667Z" fill="#E0E0E0"/>
<path d="M544.814 306.675H368.626V313.667H544.814V306.675Z" fill="#F0F0F0"/>
<path d="M345.956 260.27H339.418V412.281H345.956V260.27Z" fill="#E0E0E0"/>
<path d="M375.164 260.27H368.626V412.281H375.164V260.27Z" fill="#F0F0F0"/>
<path d="M522.145 260.27H515.607V412.281H522.145V260.27Z" fill="#E0E0E0"/>
<path d="M544.814 260.27H538.276V412.281H544.814V260.27Z" fill="#F0F0F0"/>
<path d="M110.85 207.939H77.3374V403.093H110.85V207.939Z" fill="#E6E6E6"/>
<path d="M249.036 403.08H83.7775V412.292H249.036V403.08Z" fill="#E6E6E6"/>
<path d="M110.85 403.08H255.464L255.464 207.927L110.85 207.927L110.85 403.08Z" fill="#F0F0F0"/>
<path d="M124.025 329.344H242.29V281.675H124.025V329.344Z" fill="#E6E6E6"/>
<path d="M124.025 385.698H242.29V338.029H124.025V385.698Z" fill="#E6E6E6"/>
<path d="M196.436 286.901H169.878C169.014 286.898 168.186 286.553 167.575 285.942C166.963 285.33 166.618 284.502 166.615 283.638C166.615 282.771 166.959 281.94 167.57 281.326C168.182 280.713 169.012 280.366 169.878 280.363H196.436C197.302 280.366 198.132 280.713 198.744 281.326C199.356 281.94 199.699 282.771 199.699 283.638C199.696 284.502 199.351 285.33 198.74 285.942C198.128 286.553 197.3 286.898 196.436 286.901Z" fill="#F0F0F0"/>
<path d="M124.025 272.978H242.29V225.309H124.025V272.978Z" fill="#E6E6E6"/>
<path d="M196.436 230.547H169.878C169.012 230.544 168.182 230.197 167.57 229.583C166.959 228.97 166.615 228.138 166.615 227.272C166.618 226.407 166.963 225.579 167.575 224.968C168.186 224.357 169.014 224.012 169.878 224.009H196.436C197.3 224.012 198.128 224.357 198.74 224.968C199.351 225.579 199.696 226.407 199.699 227.272C199.699 228.138 199.356 228.97 198.744 229.583C198.132 230.197 197.302 230.544 196.436 230.547Z" fill="#F0F0F0"/>
<path d="M196.436 343.255H169.878C169.014 343.252 168.186 342.907 167.575 342.296C166.963 341.684 166.618 340.856 166.615 339.992C166.615 339.125 166.959 338.294 167.57 337.68C168.182 337.067 169.012 336.72 169.878 336.717H196.436C197.302 336.72 198.132 337.067 198.744 337.68C199.356 338.294 199.699 339.125 199.699 339.992C199.696 340.856 199.351 341.684 198.74 342.296C198.128 342.907 197.3 343.252 196.436 343.255Z" fill="#F0F0F0"/>
<path d="M259.929 199.046H110.85V207.939H259.929V199.046Z" fill="#E6E6E6"/>
<path d="M72.6513 207.927H110.85V199.033H72.6513V207.927Z" fill="#E0E0E0"/>
<path d="M148.203 47.9062H93.9833V107.449H148.203V47.9062Z" fill="#E6E6E6"/>
<path d="M154.079 47.9062H98.0682V107.449H154.079V47.9062Z" fill="#F0F0F0"/>
<path d="M149.38 102.751V52.5918H102.754V102.751H149.38Z" fill="#FAFAFA"/>
<path d="M138.083 90.5948V64.7485H114.064V90.5948H138.083Z" fill="#F0F0F0"/>
<path d="M205.366 30.3276H164.248V74.5005H205.366V30.3276Z" fill="#E6E6E6"/>
<path d="M209.733 30.3276H168.185V74.5005H209.733V30.3276Z" fill="#F0F0F0"/>
<path d="M206.249 71.0168V33.8115H171.669V71.0168H206.249Z" fill="#FAFAFA"/>
<path d="M188.953 42.9995L179.495 59.388H198.411L188.953 42.9995Z" fill="#F0F0F0"/>
<path d="M307.5 467.69C438.857 467.69 545.342 461.473 545.342 453.804C545.342 446.134 438.857 439.917 307.5 439.917C176.144 439.917 69.6584 446.134 69.6584 453.804C69.6584 461.473 176.144 467.69 307.5 467.69Z" fill="#F5F5F5"/>
<path d="M515.791 122.083H395.453C389.105 122.083 383.959 127.23 383.959 133.578V166.305C383.959 172.653 389.105 177.799 395.453 177.799H515.791C522.139 177.799 527.285 172.653 527.285 166.305V133.578C527.285 127.23 522.139 122.083 515.791 122.083Z" fill="#98D08B"/>
<path d="M491.92 131.48H397.919C396.808 131.48 395.907 132.381 395.907 133.492V135.7C395.907 136.811 396.808 137.712 397.919 137.712H491.92C493.031 137.712 493.932 136.811 493.932 135.7V133.492C493.932 132.381 493.031 131.48 491.92 131.48Z" fill="#98D08B"/>
<path d="M462.148 146.494H397.919C396.808 146.494 395.907 147.395 395.907 148.506V150.714C395.907 151.825 396.808 152.726 397.919 152.726H462.148C463.259 152.726 464.16 151.825 464.16 150.714V148.506C464.16 147.395 463.259 146.494 462.148 146.494Z" fill="#98D08B"/>
<path d="M444.925 161.509H397.919C396.808 161.509 395.907 162.41 395.907 163.521V165.729C395.907 166.84 396.808 167.741 397.919 167.741H444.925C446.037 167.741 446.937 166.84 446.937 165.729V163.521C446.937 162.41 446.037 161.509 444.925 161.509Z" fill="#98D08B"/>
<path d="M503.181 161.509H456.174C455.063 161.509 454.162 162.41 454.162 163.521V165.729C454.162 166.84 455.063 167.741 456.174 167.741H503.181C504.292 167.741 505.193 166.84 505.193 165.729V163.521C505.193 162.41 504.292 161.509 503.181 161.509Z" fill="#98D08B"/>
<g opacity="0.5">
<path d="M491.92 131.48H397.919C396.808 131.48 395.907 132.381 395.907 133.492V135.7C395.907 136.811 396.808 137.712 397.919 137.712H491.92C493.031 137.712 493.932 136.811 493.932 135.7V133.492C493.932 132.381 493.031 131.48 491.92 131.48Z" fill="white"/>
<path d="M462.148 146.495H397.919C396.808 146.495 395.907 147.396 395.907 148.507V150.715C395.907 151.826 396.808 152.727 397.919 152.727H462.148C463.259 152.727 464.16 151.826 464.16 150.715V148.507C464.16 147.396 463.259 146.495 462.148 146.495Z" fill="white"/>
<path d="M444.925 161.509H397.919C396.808 161.509 395.907 162.41 395.907 163.521V165.729C395.907 166.84 396.808 167.741 397.919 167.741H444.925C446.037 167.741 446.937 166.84 446.937 165.729V163.521C446.937 162.41 446.037 161.509 444.925 161.509Z" fill="white"/>
<path d="M503.181 161.509H456.174C455.063 161.509 454.162 162.41 454.162 163.521V165.729C454.162 166.84 455.063 167.741 456.174 167.741H503.181C504.292 167.741 505.192 166.84 505.192 165.729V163.521C505.192 162.41 504.292 161.509 503.181 161.509Z" fill="white"/>
</g>
<path d="M419.398 109.093H282.807C273.498 109.093 265.952 116.639 265.952 125.948V173.936C265.952 183.244 273.498 190.79 282.807 190.79H419.398C428.707 190.79 436.253 183.244 436.253 173.936V125.948C436.253 116.639 428.707 109.093 419.398 109.093Z" fill="#98D08B"/>
<path d="M424.231 122.869H286.426C284.793 122.869 283.469 124.192 283.469 125.825V129.051C283.469 130.684 284.793 132.007 286.426 132.007H424.231C425.864 132.007 427.188 130.684 427.188 129.051V125.825C427.188 124.192 425.864 122.869 424.231 122.869Z" fill="#98D08B"/>
<path d="M380.574 144.887H286.426C284.793 144.887 283.469 146.211 283.469 147.844V151.07C283.469 152.702 284.793 154.026 286.426 154.026H380.574C382.206 154.026 383.53 152.702 383.53 151.07V147.844C383.53 146.211 382.206 144.887 380.574 144.887Z" fill="#98D08B"/>
<path d="M355.328 166.907H286.426C284.793 166.907 283.469 168.23 283.469 169.863V173.089C283.469 174.722 284.793 176.046 286.426 176.046H355.328C356.961 176.046 358.285 174.722 358.285 173.089V169.863C358.285 168.23 356.961 166.907 355.328 166.907Z" fill="#98D08B"/>
<path d="M429.248 166.907H371.84C370.207 166.907 368.883 168.23 368.883 169.863V173.089C368.883 174.722 370.207 176.046 371.84 176.046H429.248C430.881 176.046 432.205 174.722 432.205 173.089V169.863C432.205 168.23 430.881 166.907 429.248 166.907Z" fill="#98D08B"/>
<g opacity="0.5">
<path d="M424.231 122.869H286.426C284.793 122.869 283.469 124.192 283.469 125.825V129.051C283.469 130.684 284.793 132.007 286.426 132.007H424.231C425.864 132.007 427.188 130.684 427.188 129.051V125.825C427.188 124.192 425.864 122.869 424.231 122.869Z" fill="white"/>
<path d="M380.573 144.888H286.425C284.793 144.888 283.469 146.211 283.469 147.844V151.07C283.469 152.703 284.793 154.026 286.425 154.026H380.573C382.206 154.026 383.53 152.703 383.53 151.07V147.844C383.53 146.211 382.206 144.888 380.573 144.888Z" fill="white"/>
<path d="M355.328 166.907H286.425C284.793 166.907 283.469 168.23 283.469 169.863V173.089C283.469 174.722 284.793 176.046 286.425 176.046H355.328C356.961 176.046 358.285 174.722 358.285 173.089V169.863C358.285 168.23 356.961 166.907 355.328 166.907Z" fill="white"/>
<path d="M429.248 166.907H371.839C370.207 166.907 368.883 168.23 368.883 169.863V173.089C368.883 174.722 370.207 176.046 371.839 176.046H429.248C430.881 176.046 432.204 174.722 432.204 173.089V169.863C432.204 168.23 430.881 166.907 429.248 166.907Z" fill="white"/>
</g>
<path d="M334.475 205.596H268.688C264.338 205.596 260.812 209.122 260.812 213.472V312.023C260.812 316.373 264.338 319.899 268.688 319.899H334.475C338.824 319.899 342.35 316.373 342.35 312.023V213.472C342.35 209.122 338.824 205.596 334.475 205.596Z" fill="#98D08B"/>
<path opacity="0.4" d="M334.475 205.596H268.688C264.338 205.596 260.812 209.122 260.812 213.472V312.023C260.812 316.373 264.338 319.899 268.688 319.899H334.475C338.824 319.899 342.35 316.373 342.35 312.023V213.472C342.35 209.122 338.824 205.596 334.475 205.596Z" fill="black"/>
<path d="M331.457 217.519H271.693C270.894 217.519 270.245 218.167 270.245 218.967V221.138C270.245 221.937 270.894 222.585 271.693 222.585H331.457C332.256 222.585 332.904 221.937 332.904 221.138V218.967C332.904 218.167 332.256 217.519 331.457 217.519Z" fill="#FAFAFA"/>
<path d="M312.431 229.712H271.693C270.894 229.712 270.245 230.36 270.245 231.16V233.331C270.245 234.131 270.894 234.779 271.693 234.779H312.431C313.231 234.779 313.879 234.131 313.879 233.331V231.16C313.879 230.36 313.231 229.712 312.431 229.712Z" fill="#FAFAFA"/>
<path d="M331.457 241.918H271.693C270.894 241.918 270.245 242.566 270.245 243.365V245.537C270.245 246.336 270.894 246.984 271.693 246.984H331.457C332.256 246.984 332.904 246.336 332.904 245.537V243.365C332.904 242.566 332.256 241.918 331.457 241.918Z" fill="#FAFAFA"/>
<path d="M293.908 254.111H271.693C270.894 254.111 270.245 254.759 270.245 255.559V257.73C270.245 258.529 270.894 259.178 271.693 259.178H293.908C294.708 259.178 295.356 258.529 295.356 257.73V255.559C295.356 254.759 294.708 254.111 293.908 254.111Z" fill="#FAFAFA"/>
<path d="M324.993 254.111H302.777C301.978 254.111 301.33 254.759 301.33 255.559V257.73C301.33 258.529 301.978 259.178 302.777 259.178H324.993C325.792 259.178 326.44 258.529 326.44 257.73V255.559C326.44 254.759 325.792 254.111 324.993 254.111Z" fill="#FAFAFA"/>
<path d="M331.457 266.317H271.693C270.894 266.317 270.245 266.965 270.245 267.764V269.936C270.245 270.735 270.894 271.383 271.693 271.383H331.457C332.256 271.383 332.904 270.735 332.904 269.936V267.764C332.904 266.965 332.256 266.317 331.457 266.317Z" fill="#FAFAFA"/>
<path d="M331.457 278.51H271.693C270.894 278.51 270.245 279.158 270.245 279.958V282.129C270.245 282.928 270.894 283.576 271.693 283.576H331.457C332.256 283.576 332.904 282.928 332.904 282.129V279.958C332.904 279.158 332.256 278.51 331.457 278.51Z" fill="#FAFAFA"/>
<path d="M320.858 290.716H271.693C270.894 290.716 270.245 291.364 270.245 292.163V294.335C270.245 295.134 270.894 295.782 271.693 295.782H320.858C321.658 295.782 322.306 295.134 322.306 294.335V292.163C322.306 291.364 321.658 290.716 320.858 290.716Z" fill="#FAFAFA"/>
<path d="M294.632 302.909H271.693C270.894 302.909 270.245 303.557 270.245 304.357V306.528C270.245 307.327 270.894 307.975 271.693 307.975H294.632C295.431 307.975 296.079 307.327 296.079 306.528V304.357C296.079 303.557 295.431 302.909 294.632 302.909Z" fill="#FAFAFA"/>
<path d="M352.274 204.896H261.021L301.367 236.999L363.228 260.306V215.826C363.222 212.925 362.065 210.145 360.011 208.096C357.957 206.047 355.175 204.896 352.274 204.896Z" fill="#98D08B"/>
<path opacity="0.4" d="M352.274 204.896H261.021L301.367 236.999L363.228 260.306V215.826C363.222 212.925 362.065 210.145 360.011 208.096C357.957 206.047 355.175 204.896 352.274 204.896Z" fill="black"/>
<path d="M348.287 221.432H281.519C280.516 221.432 279.703 222.245 279.703 223.248V226.633C279.703 227.636 280.516 228.449 281.519 228.449H348.287C349.29 228.449 350.103 227.636 350.103 226.633V223.248C350.103 222.245 349.29 221.432 348.287 221.432Z" fill="#FAFAFA"/>
<path d="M510.087 291.795V227.615C510.087 222.697 506.1 218.709 501.181 218.709H389.737C384.818 218.709 380.831 222.697 380.831 227.615V291.795C380.831 296.714 384.818 300.701 389.737 300.701H501.181C506.1 300.701 510.087 296.714 510.087 291.795Z" fill="#98D08B"/>
<path d="M530.438 271.457V207.277C530.438 202.358 526.45 198.371 521.532 198.371H410.088C405.169 198.371 401.182 202.358 401.182 207.277V271.457C401.182 276.375 405.169 280.363 410.088 280.363H521.532C526.45 280.363 530.438 276.375 530.438 271.457Z" fill="#98D08B"/>
<path opacity="0.5" d="M530.438 271.457V207.277C530.438 202.358 526.45 198.371 521.532 198.371H410.088C405.169 198.371 401.182 202.358 401.182 207.277V271.457C401.182 276.375 405.169 280.363 410.088 280.363H521.532C526.45 280.363 530.438 276.375 530.438 271.457Z" fill="white"/>
<path d="M519.128 249.462V209.95C519.128 207.762 517.354 205.988 515.165 205.988H478.745C476.557 205.988 474.783 207.762 474.783 209.95V249.462C474.783 251.65 476.557 253.424 478.745 253.424H515.165C517.354 253.424 519.128 251.65 519.128 249.462Z" fill="#98D08B"/>
<path opacity="0.7" d="M519.128 249.462V209.95C519.128 207.762 517.354 205.988 515.165 205.988H478.745C476.557 205.988 474.783 207.762 474.783 209.95V249.462C474.783 251.65 476.557 253.424 478.745 253.424H515.165C517.354 253.424 519.128 251.65 519.128 249.462Z" fill="white"/>
<path d="M467.84 268.574V238.299C467.84 236.619 466.478 235.257 464.798 235.257H436.891C435.21 235.257 433.848 236.619 433.848 238.299V268.574C433.848 270.254 435.21 271.616 436.891 271.616H464.798C466.478 271.616 467.84 270.254 467.84 268.574Z" fill="#98D08B"/>
<path opacity="0.3" d="M467.84 268.574V238.299C467.84 236.619 466.478 235.257 464.798 235.257H436.891C435.21 235.257 433.848 236.619 433.848 238.299V268.574C433.848 270.254 435.21 271.616 436.891 271.616H464.798C466.478 271.616 467.84 270.254 467.84 268.574Z" fill="white"/>
<path d="M450.838 76.6224V60.2707C450.838 55.2709 446.785 51.2178 441.785 51.2178L142.315 51.2178C137.315 51.2178 133.262 55.2709 133.262 60.2707V76.6224C133.262 81.6222 137.315 85.6753 142.315 85.6753L441.785 85.6753C446.785 85.6753 450.838 81.6222 450.838 76.6224Z" fill="#98D08B"/>
<path opacity="0.5" d="M450.838 76.6224V60.2707C450.838 55.2709 446.785 51.2178 441.785 51.2178L142.315 51.2178C137.315 51.2178 133.262 55.2709 133.262 60.2707V76.6224C133.262 81.6222 137.315 85.6753 142.315 85.6753L441.785 85.6753C446.785 85.6753 450.838 81.6222 450.838 76.6224Z" fill="white"/>
<path d="M394.177 91.4411V79.5791H308.003V91.4411H394.177Z" fill="#98D08B"/>
<path opacity="0.5" d="M394.177 91.4411V79.5791H308.003V91.4411H394.177Z" fill="white"/>
<path d="M481.738 25.7152V9.36348C481.738 4.36369 477.685 0.310547 472.685 0.310547L173.215 0.310547C168.215 0.310547 164.162 4.36369 164.162 9.36348V25.7152C164.162 30.715 168.215 34.7681 173.215 34.7681L472.685 34.7681C477.685 34.7681 481.738 30.715 481.738 25.7152Z" fill="#98D08B"/>
<path d="M160.74 181.504C159.66 183.958 158.47 186.607 157.428 189.195C156.385 191.784 155.305 194.446 154.361 197.095C152.423 202.261 150.869 207.562 149.712 212.956L149.356 214.919L149.233 215.655C149.233 215.864 149.233 216.133 149.16 216.379C149.113 217.573 149.138 218.769 149.233 219.961C149.466 222.549 149.883 225.321 150.46 228.094C151.49 233.65 152.803 239.379 154.14 245.022L147.847 247.475C144.914 242.128 142.415 236.553 140.377 230.805C139.302 227.813 138.434 224.751 137.776 221.641C137.408 219.921 137.178 218.173 137.089 216.416C137.089 215.925 137.089 215.459 137.089 214.931C137.089 214.404 137.089 213.815 137.175 213.472L137.42 211.018C137.787 207.859 138.348 204.725 139.101 201.634C139.788 198.567 140.671 195.586 141.554 192.642C142.437 189.698 143.541 186.803 144.707 183.958C145.283 182.535 145.933 181.124 146.498 179.713C147.062 178.303 147.724 176.953 148.51 175.444L160.74 181.504Z" fill="#E4897B"/>
<path d="M153.809 243.366L158.593 248.039L148.154 252.946C148.154 252.946 145.627 248.518 147.381 244.519L153.809 243.366Z" fill="#E4897B"/>
<path d="M162.457 254.995L153.637 258.601L148.166 252.897L158.593 248.04L162.457 254.995Z" fill="#E4897B"/>
<path opacity="0.4" d="M341.123 249.966C323.767 248.017 307.378 240.966 294.028 229.704C280.678 218.442 270.967 203.475 266.123 186.695C261.278 169.915 261.517 152.075 266.81 135.431C272.103 118.787 282.211 104.085 295.858 93.1854C309.505 82.2854 326.077 75.6763 343.479 74.1935C360.882 72.7106 378.333 76.4207 393.627 84.8546C408.922 93.2885 421.372 106.068 429.404 121.576C437.437 137.085 440.691 154.627 438.755 171.985C437.469 183.518 433.923 194.684 428.319 204.845C422.716 215.007 415.165 223.964 406.098 231.206C397.031 238.448 386.626 243.832 375.477 247.051C364.329 250.27 352.655 251.26 341.123 249.966Z" fill="#FAFAFA"/>
<path opacity="0.4" d="M405.377 92.6062L271.055 199.929C270.491 198.702 269.939 197.475 269.424 196.249C266.056 188.239 263.902 179.772 263.033 171.126L379.052 78.4258C388.578 81.6031 397.483 86.4003 405.377 92.6062Z" fill="#FAFAFA"/>
<path opacity="0.4" d="M436.375 139.625L310.088 240.52C298.091 234.266 287.694 225.334 279.703 214.416L417.595 104.235C426.483 114.438 432.909 126.546 436.375 139.625Z" fill="#FAFAFA"/>
<path d="M251.551 128.438L250.385 128.045C252.404 122.09 254.94 116.323 257.966 110.811L259.034 111.399C256.048 116.85 253.544 122.551 251.551 128.438ZM266.443 99.8072L265.449 99.0835C275.53 85.4524 288.724 74.4289 303.93 66.9321L304.482 68.0361C289.449 75.4555 276.406 86.3612 266.443 99.844V99.8072ZM400.875 69.7167C396.866 67.5666 392.719 65.6856 388.461 64.0862L388.903 62.9331C393.203 64.5701 397.391 66.4878 401.439 68.674L400.875 69.7167Z" fill="#98D08B"/>
<path opacity="0.3" d="M251.551 128.438L250.385 128.045C252.404 122.09 254.94 116.323 257.966 110.811L259.034 111.399C256.048 116.85 253.544 122.551 251.551 128.438ZM266.443 99.8072L265.449 99.0835C275.53 85.4524 288.724 74.4289 303.93 66.9321L304.482 68.0361C289.449 75.4555 276.406 86.3612 266.443 99.844V99.8072ZM400.875 69.7167C396.866 67.5666 392.719 65.6856 388.461 64.0862L388.903 62.9331C393.203 64.5701 397.391 66.4878 401.439 68.674L400.875 69.7167Z" fill="black"/>
<path d="M442.276 117.079C430.917 93.5204 410.928 75.2368 386.454 66.0179C361.979 56.799 334.895 57.352 310.817 67.5621C286.739 77.7722 267.513 96.8565 257.125 120.859C246.738 144.861 245.985 171.94 255.022 196.482C246.828 199.352 238.732 202.431 230.685 205.608C219.081 210.212 207.582 215.021 196.191 220.034C184.807 225.076 173.472 230.216 162.248 235.588C156.618 238.226 151.061 241.01 145.455 243.709C142.539 244.962 139.896 246.775 137.678 249.045C136.477 250.302 135.42 251.689 134.525 253.179C133.434 254.942 132.607 256.855 132.072 258.859C131.149 262.468 131.548 266.289 133.197 269.63C134.846 272.972 137.637 275.612 141.063 277.075C142.966 277.873 144.974 278.393 147.025 278.62C148.757 278.817 150.506 278.817 152.239 278.62C155.387 278.238 158.429 277.242 161.193 275.689C166.75 272.88 172.344 270.169 177.864 267.286C188.904 261.655 199.944 255.78 210.85 249.818C221.755 243.856 232.672 237.612 243.32 231.209C250.68 226.756 258.114 222.205 265.4 217.446C279.392 239.534 301.346 255.393 326.712 261.736C352.078 268.079 378.912 264.42 401.654 251.517C424.395 238.614 441.301 217.456 448.868 192.428C456.436 167.4 454.084 140.42 442.3 117.079H442.276ZM386.511 234.264C372.255 241.3 356.233 243.952 340.47 241.883C324.708 239.814 309.913 233.118 297.956 222.641C285.999 212.164 277.417 198.376 273.295 183.022C269.173 167.668 269.697 151.436 274.8 136.38C279.903 121.323 289.356 108.118 301.963 98.4336C314.571 88.7492 329.767 83.0206 345.63 81.9722C361.493 80.9239 377.311 84.6028 391.084 92.5438C404.856 100.485 415.965 112.331 423.004 126.585C427.68 136.052 430.445 146.346 431.141 156.881C431.837 167.416 430.451 177.985 427.062 187.984C423.673 197.983 418.348 207.217 411.39 215.157C404.432 223.098 395.978 229.591 386.511 234.264Z" fill="#98D08B"/>
<path opacity="0.3" d="M442.276 117.079C430.917 93.5204 410.928 75.2368 386.454 66.0179C361.979 56.799 334.895 57.352 310.817 67.5621C286.739 77.7722 267.513 96.8565 257.125 120.859C246.738 144.861 245.985 171.94 255.022 196.482C246.828 199.352 238.732 202.431 230.685 205.608C219.081 210.212 207.582 215.021 196.191 220.034C184.807 225.076 173.472 230.216 162.248 235.588C156.618 238.226 151.061 241.01 145.455 243.709C142.539 244.962 139.896 246.775 137.678 249.045C136.477 250.302 135.42 251.689 134.525 253.179C133.434 254.942 132.607 256.855 132.072 258.859C131.149 262.468 131.548 266.289 133.197 269.63C134.846 272.972 137.637 275.612 141.063 277.075C142.966 277.873 144.974 278.393 147.025 278.62C148.757 278.817 150.506 278.817 152.239 278.62C155.387 278.238 158.429 277.242 161.193 275.689C166.75 272.88 172.344 270.169 177.864 267.286C188.904 261.655 199.944 255.78 210.85 249.818C221.755 243.856 232.672 237.612 243.32 231.209C250.68 226.756 258.114 222.205 265.4 217.446C279.392 239.534 301.346 255.393 326.712 261.736C352.078 268.079 378.912 264.42 401.654 251.517C424.395 238.614 441.301 217.456 448.868 192.428C456.436 167.4 454.084 140.42 442.3 117.079H442.276ZM386.511 234.264C372.255 241.3 356.233 243.952 340.47 241.883C324.708 239.814 309.913 233.118 297.956 222.641C285.999 212.164 277.417 198.376 273.295 183.022C269.173 167.668 269.697 151.436 274.8 136.38C279.903 121.323 289.356 108.118 301.963 98.4336C314.571 88.7492 329.767 83.0206 345.63 81.9722C361.493 80.9239 377.311 84.6028 391.084 92.5438C404.856 100.485 415.965 112.331 423.004 126.585C427.68 136.052 430.445 146.346 431.141 156.881C431.837 167.416 430.451 177.985 427.062 187.984C423.673 197.983 418.348 207.217 411.39 215.157C404.432 223.098 395.978 229.591 386.511 234.264Z" fill="black"/>
<path d="M194.645 137.699C194.645 138.423 195.025 139.012 195.504 139.012C195.982 139.012 196.362 138.423 196.362 137.699C196.362 136.976 195.982 136.387 195.504 136.387C195.025 136.387 194.645 137.025 194.645 137.699Z" fill="#263238"/>
<path d="M194.989 139.012C195.857 141.234 197.025 143.326 198.46 145.232C197.964 145.586 197.396 145.829 196.796 145.941C196.197 146.053 195.58 146.033 194.989 145.882V139.012Z" fill="#DE5753"/>
<path d="M192.106 133.663C192.037 133.663 191.97 133.648 191.908 133.618C191.847 133.588 191.793 133.545 191.75 133.491C191.686 133.398 191.661 133.283 191.679 133.171C191.697 133.059 191.758 132.959 191.848 132.89C192.388 132.481 193.02 132.207 193.688 132.094C194.357 131.981 195.043 132.031 195.688 132.24C195.746 132.256 195.8 132.284 195.846 132.322C195.893 132.359 195.931 132.407 195.958 132.46C195.985 132.514 196.001 132.573 196.004 132.632C196.007 132.692 195.997 132.752 195.976 132.808C195.954 132.864 195.921 132.915 195.879 132.958C195.836 133 195.785 133.033 195.729 133.055C195.673 133.077 195.613 133.086 195.553 133.083C195.493 133.08 195.435 133.065 195.381 133.037C194.869 132.88 194.326 132.848 193.799 132.944C193.272 133.04 192.775 133.262 192.351 133.589C192.278 133.638 192.193 133.663 192.106 133.663Z" fill="#263238"/>
<path d="M169.866 143.158C171.093 149.745 172.442 161.828 167.83 166.232C167.83 166.232 169.633 172.918 181.888 172.918C195.381 172.918 188.315 166.232 188.315 166.232C180.955 164.466 181.164 159.019 182.44 153.892L169.866 143.158Z" fill="#E4897B"/>
<path d="M162.322 169.703C163.782 167.434 161.328 161.926 161.328 161.926C161.328 161.926 183.016 156.467 191.885 164.846C193.725 166.575 191.689 169.127 191.689 169.127L162.322 169.703Z" fill="#98D08B"/>
<path opacity="0.1" d="M162.322 169.703C163.782 167.434 161.328 161.926 161.328 161.926C161.328 161.926 183.016 156.467 191.885 164.846C193.725 166.575 191.689 169.127 191.689 169.127L162.322 169.703Z" fill="black"/>
<path d="M126.441 419.984C125.301 419.984 123.473 418.082 122.933 417.371C122.91 417.336 122.898 417.296 122.898 417.254C122.898 417.213 122.91 417.172 122.933 417.138C122.953 417.103 122.982 417.075 123.016 417.056C123.051 417.036 123.09 417.027 123.129 417.027C123.264 417.027 126.27 417.297 127.092 418.364C127.181 418.477 127.245 418.608 127.279 418.748C127.313 418.887 127.316 419.033 127.288 419.174C127.277 419.357 127.21 419.531 127.096 419.674C126.982 419.817 126.826 419.921 126.65 419.971L126.441 419.984ZM123.596 417.53C124.491 418.561 125.926 419.726 126.54 419.579C126.54 419.579 126.785 419.518 126.859 419.125C126.875 419.043 126.872 418.959 126.851 418.878C126.829 418.797 126.79 418.722 126.736 418.659C125.827 417.971 124.734 417.569 123.596 417.506V417.53Z" fill="#98D08B"/>
<path d="M123.73 417.506C123.51 417.528 123.288 417.528 123.068 417.506C123.029 417.503 122.992 417.488 122.962 417.464C122.931 417.44 122.908 417.408 122.896 417.371C122.879 417.337 122.87 417.299 122.87 417.26C122.87 417.222 122.879 417.184 122.896 417.15C122.982 417.076 124.785 415.2 126.147 415.2C126.31 415.196 126.472 415.227 126.622 415.29C126.772 415.354 126.907 415.448 127.018 415.568C127.14 415.67 127.224 415.811 127.255 415.967C127.286 416.123 127.263 416.285 127.19 416.426C126.834 417.113 124.957 417.506 123.73 417.506ZM123.571 417.076C124.798 417.076 126.576 416.696 126.871 416.156C126.871 416.156 126.957 415.997 126.76 415.801C126.689 415.723 126.601 415.662 126.504 415.622C126.406 415.581 126.301 415.563 126.196 415.568C125.19 415.798 124.276 416.324 123.571 417.076Z" fill="#98D08B"/>
<path d="M207.39 447.83C206.461 447.823 205.533 447.737 204.618 447.572C204.573 447.563 204.532 447.539 204.503 447.503C204.473 447.467 204.458 447.422 204.459 447.376C204.452 447.334 204.457 447.29 204.475 447.251C204.492 447.212 204.521 447.178 204.557 447.155C204.692 447.081 207.832 445.278 209.341 445.695C209.481 445.727 209.613 445.787 209.729 445.871C209.845 445.956 209.942 446.063 210.016 446.186C210.112 446.322 210.163 446.485 210.163 446.652C210.163 446.819 210.112 446.982 210.016 447.118C209.66 447.67 208.544 447.83 207.39 447.83ZM205.317 447.253C206.986 447.499 209.267 447.486 209.684 446.897C209.746 446.824 209.795 446.689 209.684 446.431C209.591 446.279 209.441 446.169 209.267 446.125C208.31 445.879 206.409 446.689 205.317 447.253Z" fill="#98D08B"/>
<path d="M204.667 447.584C204.627 447.596 204.584 447.596 204.544 447.584C204.51 447.562 204.484 447.531 204.469 447.493C204.453 447.456 204.45 447.415 204.459 447.376C204.542 446.099 205.032 444.882 205.857 443.904C206.024 443.76 206.22 443.654 206.431 443.592C206.643 443.531 206.866 443.516 207.084 443.548C207.672 443.548 207.844 443.904 207.881 444.137C208.04 445.155 205.894 447.106 204.802 447.596L204.667 447.584ZM206.863 443.904C206.593 443.902 206.331 443.998 206.127 444.174C205.433 444.949 205.004 445.924 204.9 446.959C206.004 446.284 207.476 444.763 207.354 444.149C207.354 444.149 207.354 443.941 206.936 443.904H206.863Z" fill="#98D08B"/>
<path d="M194.755 447.363H203.772L204.667 426.498H195.651L194.755 447.363Z" fill="#E4897B"/>
<path d="M114.469 411.544L122.001 416.475L138.635 402.43L131.091 397.486L114.469 411.544Z" fill="#E4897B"/>
<path d="M123.24 416.009L115.414 409.594C115.275 409.48 115.102 409.418 114.923 409.418C114.744 409.418 114.57 409.48 114.432 409.594L107.98 414.66C107.824 414.784 107.698 414.942 107.612 415.121C107.525 415.301 107.48 415.497 107.48 415.696C107.48 415.896 107.525 416.092 107.612 416.272C107.698 416.451 107.824 416.609 107.98 416.733C110.752 418.929 112.212 419.861 115.659 422.682C117.781 424.412 123.019 429.711 125.975 432.103C128.932 434.495 131.643 431.919 130.661 430.68C126.257 425.099 124.528 420.327 124.025 417.371C123.938 416.836 123.659 416.352 123.24 416.009Z" fill="#263238"/>
<path d="M203.71 446.32H193.897C193.718 446.321 193.544 446.382 193.404 446.493C193.264 446.604 193.165 446.76 193.124 446.934L191.345 454.944C191.301 455.138 191.301 455.34 191.345 455.534C191.39 455.728 191.479 455.909 191.604 456.064C191.729 456.219 191.888 456.343 192.069 456.428C192.249 456.512 192.446 456.554 192.646 456.551C196.191 456.49 201.318 456.281 205.783 456.281C210.997 456.281 215.511 456.563 221.62 456.563C225.3 456.563 226.355 452.822 224.797 452.491C217.756 450.945 211.99 450.785 205.906 447.019C205.253 446.587 204.493 446.345 203.71 446.32Z" fill="#263238"/>
<path d="M150.068 168.918C142.254 172.598 137.801 197.255 137.801 197.255L156.9 204.873C159.696 198.046 161.956 191.012 163.659 183.835C166.284 172.476 158.066 165.116 150.068 168.918Z" fill="#263238"/>
<path d="M160.2 182.816C155.477 187.6 153.318 196.972 152.374 203.069L156.949 204.896C159.665 198.264 161.88 191.436 163.573 184.472C163.168 181.872 162.162 180.829 160.2 182.816Z" fill="#203048"/>
<path d="M202.177 168.746C202.177 168.746 211.77 179.59 202.717 246.641H154.52C154.189 239.28 158.838 203.155 151.699 168.292C157.025 167.26 162.414 166.579 167.83 166.256C174.652 165.851 181.493 165.851 188.315 166.256C192.993 166.727 197.628 167.559 202.177 168.746Z" fill="#263238"/>
<path d="M206.581 194.777L198.46 180.78C196.892 187.311 196.252 194.029 196.559 200.738C196.779 205.547 201.183 223.358 205.145 225.959C206.197 215.599 206.676 205.189 206.581 194.777Z" fill="#203048"/>
<path d="M207.709 178.327C208.936 184.289 210.163 190.398 211.475 196.384C212.788 202.37 214.149 208.381 215.732 214.183C216.137 215.618 216.517 217.09 216.958 218.464L217.29 219.519L217.449 220.047V219.985C217.363 219.875 217.265 219.863 217.339 219.985C217.843 220.536 218.487 220.939 219.203 221.151C220.363 221.582 221.557 221.915 222.773 222.144C228.573 223.063 234.445 223.445 240.314 223.285L241.48 229.958C239.836 230.486 238.303 230.866 236.684 231.246C235.064 231.627 233.47 231.945 231.838 232.191C228.463 232.753 225.04 232.983 221.62 232.878C219.719 232.827 217.828 232.58 215.977 232.142C213.624 231.627 211.413 230.601 209.5 229.136C208.251 228.128 207.22 226.876 206.47 225.456C206.274 225.088 206.102 224.671 205.943 224.316L205.722 223.739L205.268 222.512C204.643 220.954 204.127 219.421 203.563 217.888C201.49 211.754 199.76 205.56 198.239 199.377C196.718 193.195 195.406 187.024 194.314 180.682L207.709 178.327Z" fill="#E4897B"/>
<path d="M190.143 175.321C187.604 183.552 197.896 208.098 197.896 208.098L218.394 202.946C218.394 202.946 217.609 190.189 212.935 180.069C205.894 164.809 193.185 165.447 190.143 175.321Z" fill="#263238"/>
<path d="M240.143 223.285L250.349 223.027L245.442 233.65C245.442 233.65 241.284 234.202 237.873 228.596L234.279 224.303L238.413 223.481C238.982 223.361 239.561 223.296 240.143 223.285Z" fill="#E4897B"/>
<path d="M256.789 225.002L250.95 233.81L245.442 233.65L250.349 223.027L256.789 225.002Z" fill="#E4897B"/>
<path d="M204.667 426.498L204.201 437.256H195.185L195.651 426.498H204.667Z" fill="#CE6F64"/>
<path d="M131.091 397.486L138.635 402.43L130.048 409.667L122.516 404.736L131.091 397.486Z" fill="#CE6F64"/>
<path d="M170.43 136.142C170.97 145.06 170.835 150.322 175.337 154.898C182.108 161.804 193.136 157.719 195.271 148.764C197.196 140.742 195.994 127.493 187.26 123.936C185.333 123.158 183.24 122.883 181.177 123.135C179.114 123.388 177.15 124.161 175.467 125.381C173.785 126.601 172.44 128.229 171.559 130.111C170.678 131.993 170.29 134.068 170.43 136.142Z" fill="#E4897B"/>
<path d="M159.93 134.571C162.15 142.704 167.376 152.076 174.135 152.677C182.526 153.413 186.316 144.741 187.42 135.786C192.449 132.339 183.683 127.509 188.725 127.031C195.202 126.417 194.542 121.924 191.866 118.698C191.866 118.698 193.59 119.042 187.592 116.343C181.395 116.343 183.84 115.71 177.556 116.343C177.556 116.343 176.92 116.993 169.437 118.698C161.954 120.403 164.293 123.669 160.687 127.031C160.687 127.043 158.47 129.223 159.93 134.571Z" fill="#263238"/>
<path d="M182.305 137.626C182.469 139.843 183.362 141.943 184.844 143.6C186.806 145.771 188.855 144.422 189.199 141.784C189.517 139.417 188.867 135.43 186.463 134.228C184.059 133.026 182.145 134.952 182.305 137.626Z" fill="#E4897B"/>
<path d="M185.617 246.641C185.617 246.641 194.4 310.245 187.481 335.735C176.515 376.093 134.587 410.158 134.587 410.158L120.369 400.835C120.369 400.835 156.078 372.07 160.445 338.274C164.37 307.939 154.52 271.248 154.52 246.629L185.617 246.641Z" fill="#98D08B"/>
<path opacity="0.1" d="M185.617 246.641C185.617 246.641 194.4 310.245 187.481 335.735C176.515 376.093 134.587 410.158 134.587 410.158L120.369 400.835C120.369 400.835 156.078 372.07 160.445 338.274C164.37 307.939 154.52 271.248 154.52 246.629L185.617 246.641Z" fill="black"/>
<path d="M189.248 283C186.91 280.322 184.335 277.858 181.556 275.64C183.053 296.285 184.28 326.866 182.918 348.591C184.749 344.426 186.274 340.134 187.481 335.748C190.855 323.297 190.499 301.793 189.248 283Z" fill="#98D08B"/>
<path opacity="0.3" d="M189.248 283C186.91 280.322 184.335 277.858 181.556 275.64C183.053 296.285 184.28 326.866 182.918 348.591C184.749 344.426 186.274 340.134 187.481 335.748C190.855 323.297 190.499 301.793 189.248 283Z" fill="black"/>
<path d="M140.315 406.981C140.377 406.981 134.807 410.661 134.807 410.661L119.278 400.479L124.184 396.419L140.315 406.981Z" fill="#98D08B"/>
<path opacity="0.3" d="M140.315 406.981C140.377 406.981 134.807 410.661 134.807 410.661L119.278 400.479L124.184 396.419L140.315 406.981Z" fill="black"/>
<path d="M202.717 246.641C202.717 246.641 216.284 304.173 217.241 331.663C218.32 362.477 207.562 435.17 207.562 435.17H192.29C192.29 435.17 190.413 361.913 189.738 333.846C188.99 303.24 171.031 246.641 171.031 246.641H202.717Z" fill="#98D08B"/>
<path opacity="0.1" d="M202.717 246.641C202.717 246.641 216.284 304.173 217.241 331.663C218.32 362.477 207.562 435.17 207.562 435.17H192.29C192.29 435.17 190.413 361.913 189.738 333.846C188.99 303.24 171.031 246.641 171.031 246.641H202.717Z" fill="black"/>
<path d="M210.494 429.098C210.567 429.098 209.635 435.428 209.635 435.428H191.063L190.56 429.773L210.494 429.098Z" fill="#98D08B"/>
<path opacity="0.3" d="M210.494 429.098C210.567 429.098 209.635 435.428 209.635 435.428H191.063L190.56 429.773L210.494 429.098Z" fill="black"/>
</g>
</svg>
