<svg width="172" height="52" viewBox="0 0 172 52" fill="none" xmlns="http://www.w3.org/2000/svg">
<path d="M0 8.22933V0.0929863H3.36491C4.21659 0.0929863 4.96562 0.263462 5.61198 0.604414C6.26595 0.945365 6.77164 1.42192 7.12904 2.03409C7.49405 2.64625 7.67655 3.35527 7.67655 4.16116C7.67655 4.96704 7.49405 5.67607 7.12904 6.28823C6.77164 6.90039 6.26595 7.37695 5.61198 7.7179C4.96562 8.05885 4.21659 8.22933 3.36491 8.22933H0ZM1.14065 7.2181H3.29647C3.95804 7.2181 4.52837 7.09024 5.00744 6.83453C5.49412 6.57881 5.87053 6.22236 6.13668 5.76518C6.40283 5.30025 6.53591 4.76557 6.53591 4.16116C6.53591 3.54899 6.40283 3.01432 6.13668 2.55714C5.87053 2.09995 5.49412 1.7435 5.00744 1.48779C4.52837 1.23207 3.95804 1.10422 3.29647 1.10422H1.14065V7.2181Z" fill="black"/>
<path d="M17.7618 3.60324H21.8682V4.59122H17.7618V3.60324ZM17.8645 7.2181H22.5183V8.22933H16.7238V0.0929863H22.3586V1.10422H17.8645V7.2181Z" fill="black"/>
<path d="M33.8581 8.22933L30.3449 0.0929863H31.5768L34.8049 7.60167H34.0977L37.3485 0.0929863H38.4892L34.9874 8.22933H33.8581Z" fill="black"/>
<path d="M47.8455 3.60324H51.9518V4.59122H47.8455V3.60324ZM47.9482 7.2181H52.602V8.22933H46.8075V0.0929863H52.4423V1.10422H47.9482V7.2181Z" fill="black"/>
<path d="M61.7491 8.22933V0.0929863H62.8897V7.2181H67.2128V8.22933H61.7491Z" fill="black"/>
<path d="M79.2815 8.32232C78.6731 8.32232 78.1066 8.21771 77.5819 8.00848C77.0648 7.79926 76.6161 7.50868 76.2359 7.13673C75.8557 6.75704 75.5591 6.31535 75.3462 5.81167C75.1333 5.30799 75.0268 4.75782 75.0268 4.16116C75.0268 3.56449 75.1333 3.01432 75.3462 2.51064C75.5591 2.00696 75.8557 1.56915 76.2359 1.1972C76.6161 0.817508 77.0648 0.52305 77.5819 0.31383C78.099 0.10461 78.6655 0 79.2815 0C79.8898 0 80.4487 0.10461 80.9582 0.31383C81.4753 0.515301 81.924 0.805885 82.3042 1.18558C82.692 1.55753 82.9886 1.99534 83.1939 2.49902C83.4068 3.0027 83.5133 3.55674 83.5133 4.16116C83.5133 4.76557 83.4068 5.31962 83.1939 5.8233C82.9886 6.32697 82.692 6.76866 82.3042 7.14836C81.924 7.5203 81.4753 7.81089 80.9582 8.02011C80.4487 8.22158 79.8898 8.32232 79.2815 8.32232ZM79.2815 7.28784C79.7225 7.28784 80.1293 7.21035 80.5019 7.05537C80.8822 6.90039 81.2092 6.68342 81.4829 6.40446C81.7643 6.11775 81.981 5.78455 82.1331 5.40486C82.2928 5.02516 82.3726 4.61059 82.3726 4.16116C82.3726 3.71172 82.2928 3.29716 82.1331 2.91746C81.981 2.53776 81.7643 2.20844 81.4829 1.92947C81.2092 1.64277 80.8822 1.42192 80.5019 1.26694C80.1293 1.11197 79.7225 1.03448 79.2815 1.03448C78.8328 1.03448 78.4184 1.11197 78.0382 1.26694C77.6655 1.42192 77.3386 1.64277 77.0572 1.92947C76.7758 2.20844 76.5553 2.53776 76.3956 2.91746C76.2435 3.29716 76.1675 3.71172 76.1675 4.16116C76.1675 4.61059 76.2435 5.02516 76.3956 5.40486C76.5553 5.78455 76.7758 6.11775 77.0572 6.40446C77.3386 6.68342 77.6655 6.90039 78.0382 7.05537C78.4184 7.21035 78.8328 7.28784 79.2815 7.28784Z" fill="black"/>
<path d="M92.5568 8.22933V0.0929863H95.6708C96.3704 0.0929863 96.9673 0.205345 97.4616 0.430064C97.9559 0.654782 98.3361 0.980235 98.6022 1.40642C98.8684 1.83261 99.0015 2.34017 99.0015 2.92908C99.0015 3.518 98.8684 4.02555 98.6022 4.45174C98.3361 4.87018 97.9559 5.19564 97.4616 5.4281C96.9673 5.65282 96.3704 5.76518 95.6708 5.76518H93.1842L93.6974 5.21888V8.22933H92.5568ZM93.6974 5.33512L93.1842 4.75395H95.6366C96.3666 4.75395 96.9179 4.5951 97.2905 4.27739C97.6707 3.95969 97.8608 3.51025 97.8608 2.92908C97.8608 2.34792 97.6707 1.89848 97.2905 1.58077C96.9179 1.26307 96.3666 1.10422 95.6366 1.10422H93.1842L93.6974 0.52305V5.33512Z" fill="black"/>
<path d="M109.015 3.60324H113.122V4.59122H109.015V3.60324ZM109.118 7.2181H113.772V8.22933H107.977V0.0929863H113.612V1.10422H109.118V7.2181Z" fill="black"/>
<path d="M122.919 8.22933V0.0929863H126.284C127.136 0.0929863 127.885 0.263462 128.531 0.604414C129.185 0.945365 129.691 1.42192 130.048 2.03409C130.413 2.64625 130.596 3.35527 130.596 4.16116C130.596 4.96704 130.413 5.67607 130.048 6.28823C129.691 6.90039 129.185 7.37695 128.531 7.7179C127.885 8.05885 127.136 8.22933 126.284 8.22933H122.919ZM124.06 7.2181H126.215C126.877 7.2181 127.447 7.09024 127.926 6.83453C128.413 6.57881 128.789 6.22236 129.056 5.76518C129.322 5.30025 129.455 4.76557 129.455 4.16116C129.455 3.54899 129.322 3.01432 129.056 2.55714C128.789 2.09995 128.413 1.7435 127.926 1.48779C127.447 1.23207 126.877 1.10422 126.215 1.10422H124.06V7.2181Z" fill="black"/>
<path d="M150.006 8.22933V0.0929863H153.588C154.508 0.0929863 155.215 0.282834 155.709 0.66253C156.204 1.03448 156.451 1.5459 156.451 2.19681C156.451 2.6385 156.352 3.01045 156.154 3.31265C155.964 3.61486 155.706 3.84733 155.379 4.01005C155.052 4.17278 154.698 4.25414 154.318 4.25414L154.523 3.90544C154.979 3.90544 155.382 3.98681 155.732 4.14953C156.082 4.31226 156.36 4.55248 156.565 4.87018C156.77 5.18014 156.873 5.56758 156.873 6.03252C156.873 6.72992 156.614 7.27234 156.097 7.65978C155.588 8.03948 154.827 8.22933 153.816 8.22933H150.006ZM151.147 7.28784H153.77C154.401 7.28784 154.884 7.17935 155.219 6.96238C155.554 6.74542 155.721 6.40446 155.721 5.93953C155.721 5.46685 155.554 5.12202 155.219 4.90505C154.884 4.68808 154.401 4.5796 153.77 4.5796H151.044V3.63811H153.485C154.063 3.63811 154.512 3.52962 154.831 3.31265C155.151 3.09568 155.31 2.77023 155.31 2.33629C155.31 1.90235 155.151 1.5769 154.831 1.35993C154.512 1.14296 154.063 1.03448 153.485 1.03448H151.147V7.28784Z" fill="black"/>
<path d="M167.7 8.22933V5.11427L167.962 5.83492L164.529 0.0929863H165.749L168.635 4.93992H167.974L170.871 0.0929863H172L168.578 5.83492L168.829 5.11427V8.22933H167.7Z" fill="black"/>
<path fill-rule="evenodd" clip-rule="evenodd" d="M22.272 51.7427H17.672V50.8065C14.889 50.5121 12.922 48.7259 12.922 46.3894C12.922 44.0331 14.684 41.9661 17.672 41.6873V40.4161C14.287 40.749 12.141 42.8212 11.69 45.3335V29.9091H22.268V51.7427H22.272ZM8.978 45.1348C8.528 42.4977 6.384 40.6387 2.678 40.4847V29.9091H8.978V45.1348ZM11.694 47.3111V51.7427H16.258C15.1637 51.55 14.1479 51.0273 13.3366 50.2395C12.5253 49.4517 11.9541 48.4335 11.694 47.3111ZM8.978 47.2123V51.7417H3.9C6.695 51.2455 8.566 49.5467 8.979 47.2123H8.978ZM2.678 41.7674V50.7139C5.89 50.7139 7.736 48.8154 7.736 46.2542C7.736 43.693 6.163 41.7643 2.678 41.7643V41.7674ZM22.571 29.6626H0V51.9862H22.576L22.571 29.6626Z" fill="#08509E"/>
<path d="M25.764 29.9736H42.753V32.6097L41.561 34.0048H36.938V51.6782H31.573V34.0048H25.761L25.764 29.9736Z" fill="#08509E"/>
<path d="M59.606 32.6097L58.4151 34.0048H50.0681V38.6559H56.9231V42.686H50.0681V47.645H59.606V51.6761H44.7061V29.9736H59.606V32.6097Z" fill="#08509E"/>
<path d="M76.6831 47.6451V51.6762H66.401C65.7887 51.7217 65.1739 51.6349 64.5953 51.4214C64.0168 51.2078 63.4869 50.8721 63.039 50.4353C62.5911 49.9985 62.235 49.4701 61.9928 48.8832C61.7507 48.2963 61.6279 47.6637 61.6321 47.0251V34.6248C61.6279 33.9862 61.7507 33.3535 61.9928 32.7667C62.235 32.1798 62.5911 31.6513 63.039 31.2145C63.4869 30.7777 64.0168 30.442 64.5953 30.2285C65.1739 30.0149 65.7887 29.9282 66.401 29.9737H76.6831V32.6098L75.491 34.0048H68.0401C67.9021 34.0011 67.7648 34.0266 67.6366 34.0798C67.5084 34.133 67.3919 34.2128 67.2942 34.3143C67.1966 34.4158 67.1198 34.5368 67.0685 34.6702C67.0173 34.8035 66.9926 34.9463 66.996 35.0898V46.5621C66.993 46.7055 67.018 46.8479 67.0694 46.981C67.1209 47.114 67.1977 47.2348 67.2953 47.336C67.3929 47.4372 67.5092 47.5168 67.6372 47.5699C67.7652 47.6231 67.9023 47.6486 68.0401 47.6451H76.6831Z" fill="#08509E"/>
<path d="M103.933 51.9883C103.321 52.0336 102.706 51.9468 102.128 51.7333C101.549 51.5197 101.02 51.1841 100.572 50.7474C100.124 50.3107 99.7681 49.7825 99.526 49.1958C99.2839 48.6091 99.161 47.9767 99.165 47.3382V34.3149C99.161 33.6764 99.2839 33.0439 99.526 32.4572C99.7681 31.8704 100.124 31.3421 100.572 30.9053C101.02 30.4686 101.549 30.1328 102.128 29.9192C102.706 29.7055 103.321 29.6185 103.933 29.6637H111.086C111.698 29.6209 112.312 29.7095 112.889 29.924C113.466 30.1385 113.995 30.4744 114.443 30.9106C114.89 31.3469 115.246 31.8743 115.489 32.4599C115.732 33.0456 115.857 33.677 115.855 34.3149V47.3372C115.859 47.9757 115.736 48.6083 115.494 49.195C115.252 49.7818 114.896 50.3101 114.448 50.7468C114 51.1835 113.47 51.5191 112.891 51.7326C112.313 51.946 111.698 52.0328 111.086 51.9873L103.933 51.9883ZM109.447 47.9582C109.585 47.9617 109.722 47.9359 109.85 47.8826C109.978 47.8293 110.095 47.7495 110.192 47.6481C110.29 47.5467 110.367 47.4257 110.418 47.2925C110.469 47.1593 110.494 47.0167 110.491 46.8732V34.7799C110.494 34.6363 110.47 34.4936 110.418 34.3604C110.367 34.2271 110.29 34.1061 110.193 34.0046C110.095 33.9032 109.978 33.8234 109.85 33.7701C109.722 33.7169 109.585 33.6913 109.447 33.6948H105.572C105.434 33.6914 105.297 33.7172 105.169 33.7705C105.041 33.8238 104.925 33.9036 104.828 34.0051C104.73 34.1065 104.654 34.2275 104.602 34.3607C104.551 34.4939 104.527 34.6365 104.53 34.7799V46.8722C104.527 47.0155 104.551 47.1581 104.602 47.2913C104.654 47.4245 104.73 47.5455 104.828 47.647C104.925 47.7484 105.041 47.8282 105.169 47.8816C105.297 47.9349 105.434 47.9606 105.572 47.9572L109.447 47.9582Z" fill="#08509E"/>
<path d="M123.315 51.9872C122.703 52.0327 122.088 51.9459 121.509 51.7325C120.931 51.519 120.401 51.1834 119.953 50.7467C119.505 50.31 119.149 49.7817 118.907 49.1949C118.665 48.6082 118.542 47.9757 118.546 47.3371V29.9736H123.911V46.8721C123.908 47.0155 123.932 47.1581 123.984 47.2913C124.035 47.4245 124.112 47.5455 124.209 47.6469C124.307 47.7484 124.423 47.8282 124.551 47.8815C124.679 47.9348 124.816 47.9605 124.954 47.9571H128.828C128.966 47.9607 129.103 47.9351 129.231 47.8818C129.359 47.8285 129.476 47.7488 129.573 47.6473C129.671 47.5459 129.748 47.4248 129.799 47.2916C129.851 47.1583 129.875 47.0156 129.872 46.8721V29.9736H135.237V47.333C135.241 47.9714 135.118 48.6038 134.876 49.1905C134.634 49.7772 134.278 50.3054 133.83 50.7421C133.382 51.1788 132.853 51.5144 132.274 51.728C131.696 51.9415 131.081 52.0284 130.469 51.983L123.315 51.9872Z" fill="#08509E"/>
<path d="M137.474 34.6247C137.47 33.9862 137.593 33.3537 137.835 32.7669C138.077 32.1801 138.433 31.6517 138.881 31.2149C139.328 30.7781 139.858 30.4424 140.437 30.2288C141.015 30.0151 141.63 29.9283 142.242 29.9736H152.376V32.6097L151.183 34.0047H143.883C143.745 34.0013 143.608 34.027 143.48 34.0803C143.352 34.1337 143.236 34.2135 143.138 34.315C143.041 34.4164 142.964 34.5374 142.913 34.6706C142.862 34.8038 142.837 34.9464 142.841 35.0897V36.6398C142.83 36.813 142.852 36.9867 142.907 37.1509C142.961 37.3151 143.046 37.4665 143.156 37.5964C143.267 37.7262 143.402 37.8319 143.552 37.9073C143.702 37.9828 143.865 38.0264 144.032 38.0358L149.546 39.2759C150.596 39.4667 151.546 40.039 152.228 40.8908C152.911 41.7425 153.28 42.8184 153.271 43.927V47.0271C153.275 47.6656 153.152 48.2981 152.91 48.8849C152.668 49.4717 152.312 50.0002 151.864 50.4369C151.417 50.8737 150.887 51.2095 150.308 51.4231C149.73 51.6367 149.115 51.7236 148.503 51.6782H137.474V47.645H146.862C147 47.6486 147.137 47.6229 147.265 47.5697C147.393 47.5164 147.51 47.4366 147.607 47.3351C147.705 47.2337 147.781 47.1126 147.833 46.9794C147.884 46.8461 147.908 46.7034 147.905 46.56V44.5439C147.916 44.3707 147.893 44.197 147.839 44.0328C147.785 43.8687 147.7 43.7174 147.589 43.5876C147.478 43.4579 147.343 43.3523 147.193 43.277C147.043 43.2017 146.88 43.1581 146.713 43.1489L141.199 41.9088C140.149 41.7179 139.199 41.1457 138.516 40.294C137.834 39.4422 137.465 38.3663 137.474 37.2577V34.6247Z" fill="#08509E"/>
<path d="M170.412 32.6097L169.221 34.0048H160.875V38.6559H167.73V42.686H160.875V47.645H170.412V51.6761H155.512V29.9736H170.412V32.6097Z" fill="#08509E"/>
<path d="M85.9241 51.6782H78.9241V29.9736H85.8351V38.1451H90.2241V29.9736H97.1351V51.6782H90.4021V43.9458H85.9241V51.6782Z" fill="#F19F1D"/>
<path fill-rule="evenodd" clip-rule="evenodd" d="M100.509 27.3511H75.535L88.013 16.8088V16.8286L100.509 27.3511Z" fill="#F19F1D"/>
</svg>
