<svg width="90" height="104" viewBox="0 0 90 104" fill="none" xmlns="http://www.w3.org/2000/svg">
<path d="M59.1429 37.7143L30.5714 66.2857L59.1429 37.7143ZM66.2857 2H9.14286C7.24845 2 5.43164 2.75255 4.09209 4.09209C2.75255 5.43164 2 7.24845 2 9.14286V94.8571C2 96.7515 2.75255 98.5684 4.09209 99.9079C5.43164 101.247 7.24845 102 9.14286 102H80.5714C82.4658 102 84.2826 101.247 85.6222 99.9079C86.9617 98.5684 87.7143 96.7515 87.7143 94.8571V23.4286L66.2857 2ZM44.8571 73.4286C39.1739 73.4286 33.7235 71.1709 29.7049 67.1523C25.6862 63.1337 23.4286 57.6832 23.4286 52C23.4286 46.3168 25.6862 40.8663 29.7049 36.8477C33.7235 32.8291 39.1739 30.5714 44.8571 30.5714C50.5404 30.5714 55.9908 32.8291 60.0094 36.8477C64.0281 40.8663 66.2857 46.3168 66.2857 52C66.2857 57.6832 64.0281 63.1337 60.0094 67.1523C55.9908 71.1709 50.5404 73.4286 44.8571 73.4286Z" fill="#F1F1F1"/>
<path d="M59.1429 37.7143L30.5714 66.2857M66.2857 2H9.14286C7.24845 2 5.43164 2.75255 4.09209 4.09209C2.75255 5.43164 2 7.24845 2 9.14286V94.8571C2 96.7515 2.75255 98.5684 4.09209 99.9079C5.43164 101.247 7.24845 102 9.14286 102H80.5714C82.4658 102 84.2826 101.247 85.6222 99.9079C86.9617 98.5684 87.7143 96.7515 87.7143 94.8571V23.4286L66.2857 2ZM44.8571 73.4286C39.1739 73.4286 33.7235 71.1709 29.7049 67.1523C25.6862 63.1337 23.4286 57.6832 23.4286 52C23.4286 46.3168 25.6862 40.8663 29.7049 36.8477C33.7235 32.8291 39.1739 30.5714 44.8571 30.5714C50.5404 30.5714 55.9908 32.8291 60.0094 36.8477C64.0281 40.8663 66.2857 46.3168 66.2857 52C66.2857 57.6832 64.0281 63.1337 60.0094 67.1523C55.9908 71.1709 50.5404 73.4286 44.8571 73.4286Z" stroke="#C4C4C4" stroke-width="3"/>
</svg>
