<svg width="20" height="17" viewBox="0 0 20 17" fill="none" xmlns="http://www.w3.org/2000/svg">
<path d="M5.3125 0C4.74891 0 4.20841 0.223883 3.8099 0.622398C3.41138 1.02091 3.1875 1.56141 3.1875 2.125V6.375H5.3125V2.125H13.8125V5.3125H11.1562L14.875 9.03125L18.5938 5.3125H15.9375V2.125C15.9375 1.56141 15.7136 1.02091 15.3151 0.622398C14.9166 0.223883 14.3761 0 13.8125 0H5.3125ZM0 8.5V10.625H8.5V8.5H0ZM0 11.6875V13.8125H8.5V11.6875H0ZM10.625 11.6875V13.8125H19.125V11.6875H10.625ZM0 14.875V17H8.5V14.875H0ZM10.625 14.875V17H19.125V14.875H10.625Z" fill="white"/>
</svg>
