<svg width="22" height="19" viewBox="0 0 22 19" fill="none" xmlns="http://www.w3.org/2000/svg">
<path d="M5.9375 0C5.30761 0 4.70352 0.250222 4.25812 0.695621C3.81272 1.14102 3.5625 1.74511 3.5625 2.375V7.125H5.9375V2.375H15.4375V5.9375H12.4688L16.625 10.0938L20.7812 5.9375H17.8125V2.375C17.8125 1.74511 17.5623 1.14102 17.1169 0.695621C16.6715 0.250222 16.0674 0 15.4375 0H5.9375ZM0 9.5V11.875H9.5V9.5H0ZM0 13.0625V15.4375H9.5V13.0625H0ZM11.875 13.0625V15.4375H21.375V13.0625H11.875ZM0 16.625V19H9.5V16.625H0ZM11.875 16.625V19H21.375V16.625H11.875Z" fill="#CD43E4"/>
</svg>
