<svg width="72" height="55" viewBox="0 0 72 55" fill="none" xmlns="http://www.w3.org/2000/svg">
<path d="M57.8376 20.8309C56.8479 15.0386 54.1475 9.8228 50.1977 6.07438C46.2479 2.32596 41.2937 0.277474 36.1814 0.278809C27.6662 0.278809 20.2706 5.85918 16.5876 14.0256C12.257 14.566 8.25218 16.9356 5.34253 20.6789C2.43288 24.4222 0.823713 29.2752 0.824219 34.3054C0.824219 45.5683 8.75011 54.7214 18.5028 54.7214H56.8064C64.9385 54.7214 71.5385 47.0995 71.5385 37.7081C71.5385 28.7251 65.4983 21.4434 57.8376 20.8309ZM42.0742 30.9028V44.5134H30.2885V30.9028H21.4492L36.1814 13.8895L50.9135 30.9028H42.0742Z" fill="#8F8F8F"/>
</svg>
